# xmcd
#
# Track frame offsets: 
#        150
#        23822
#        46012
#        67840
#        85822
#        105692
#        126615
#        149567
#        169790
#        193190
#
# Disc length: 2709 seconds
#
# Revision: 3
# Processed by: cddbd v1.5.2PL0 Copyright (c) Steve Scherf et al.
# Submitted via: ExactAudioCopy v0.99pb5
#
DISCID=8a0a930a
DTITLE=Rick Braun - Esperanto
DYEAR=2003
DGENRE=Jazz
TTITLE0=Green Tomatoes
TTITLE1=Latinesque
TTITLE2=Daddy-O
TTITLE3=Sir W
TTITLE4=The Villa Di Costa
TTITLE5=Zona Rosa
TTITLE6=To Manhattan With Love
TTITLE7=Stereo
TTITLE8=Turquoise
TTITLE9=Mother's Day
EXTD=YEAR: 2003
EXTT0=
EXTT1=
EXTT2=
EXTT3=
EXTT4=
EXTT5=
EXTT6=
EXTT7=
EXTT8=
EXTT9=
PLAYORDER=
